name C:\Users\antoi\Documents\MyRepositories\upper-imu-dc\Results\main_tracking\Case_76\FLX01_angularVelocities_groundFrame.mot
datacolumns 4
datarows 47
range 3.51000000 3.97000000
endheader 
time	radius_imu_x	radius_imu_y	radius_imu_z	
          3.51000000	         -0.00756209	         -0.06742738	         -0.09382133	
          3.52000000	         -0.00310826	         -0.06682756	         -0.09307587	
          3.53000000	          0.00155522	         -0.06642528	         -0.09186262	
          3.54000000	          0.00629786	         -0.06622263	         -0.09024895	
          3.55000000	          0.01099374	         -0.06621508	         -0.08831161	
          3.56000000	          0.01553136	         -0.06637403	         -0.08613096	
          3.57000000	          0.01982248	         -0.06662780	         -0.08378521	
          3.58000000	          0.02380791	         -0.06685905	         -0.08135051	
          3.59000000	          0.02746020	         -0.06690877	         -0.07890216	
          3.60000000	          0.03078326	         -0.06658337	         -0.07651558	
          3.61000000	          0.03380860	         -0.06566776	         -0.07426860	
          3.62000000	          0.03658912	         -0.06394151	         -0.07224368	
          3.63000000	          0.03919145	         -0.06119571	         -0.07052904	
          3.64000000	          0.04168839	         -0.05724730	         -0.06922056	
          3.65000000	          0.04415180	         -0.05194946	         -0.06842252	
          3.66000000	          0.04664647	         -0.04519940	         -0.06824665	
          3.67000000	          0.04922540	         -0.03693955	         -0.06880924	
          3.68000000	          0.05192567	         -0.02715566	         -0.07022919	
          3.69000000	          0.05476498	         -0.01588210	         -0.07263021	
          3.70000000	          0.05774283	         -0.00319381	         -0.07613290	
          3.71000000	          0.06084341	          0.01081155	         -0.08084122	
          3.72000000	          0.06403853	          0.02600716	         -0.08684075	
          3.73000000	          0.06729244	          0.04222321	         -0.09420743	
          3.74000000	          0.07056532	          0.05926431	         -0.10302136	
          3.75000000	          0.07380767	          0.07692853	         -0.11334447	
          3.76000000	          0.07695458	          0.09501763	         -0.12518855	
          3.77000000	          0.07993535	          0.11335148	         -0.13854456	
          3.78000000	          0.08268320	          0.13176845	         -0.15340319	
          3.79000000	          0.08513682	          0.15012987	         -0.16973598	
          3.80000000	          0.08723950	          0.16833232	         -0.18749023	
          3.81000000	          0.08893825	          0.18630393	         -0.20659808	
          3.82000000	          0.09018495	          0.20400103	         -0.22698334	
          3.83000000	          0.09093884	          0.22140855	         -0.24856407	
          3.84000000	          0.09116908	          0.23853895	         -0.27125445	
          3.85000000	          0.09085716	          0.25543171	         -0.29496599	
          3.86000000	          0.08999894	          0.27215112	         -0.31960892	
          3.87000000	          0.08860626	          0.28878013	         -0.34509406	
          3.88000000	          0.08670766	          0.30541191	         -0.37133491	
          3.89000000	          0.08434847	          0.32214063	         -0.39824949	
          3.90000000	          0.08159066	          0.33905278	         -0.42576179	
          3.91000000	          0.07851242	          0.35622128	         -0.45380295	
          3.92000000	          0.07520763	          0.37370425	         -0.48231189	
          3.93000000	          0.07178545	          0.39154729	         -0.51123552	
          3.94000000	          0.06837034	          0.40978724	         -0.54052795	
          3.95000000	          0.06510218	          0.42845693	         -0.57014759	
          3.96000000	          0.06213505	          0.44758555	         -0.60005517	
          3.97000000	          0.05963319	          0.46719064	         -0.63021309	
